<svg xmlns="http://www.w3.org/2000/svg" viewBox="0 0 500 500">
<g fill="#046aad">
  <path d="M152.49 292.97 c-0.83 -0.49 -1.81 -1.42 -2.15 -2.05 -0.78 -1.37 -1.22 -18.26 -0.68 -24.66 0.29 -3.86 0.49 -4.35 1.81 -5.62 l1.46 -1.37 12.55 0 c12.55 0 12.55 0 15.09 -1.27 1.90 -0.93 2.88 -1.86 3.91 -3.52 1.27 -2.25 1.32 -2.44 1.32 -10.35 l0 -8.06 -9.03 -0.29 c-7.32 -0.24 -9.57 -0.49 -11.72 -1.27 -9.47 -3.47 -11.87 -5.76 -27.93 -27.05 -4.20 -5.57 -9.03 -11.91 -10.74 -14.16 -10.99 -14.31 -29.35 -38.43 -33.11 -43.41 -4.74 -6.35 -5.27 -7.91 -3.42 -9.77 0.93 -0.93 1.61 -0.98 19.53 -0.98 13.33 0 18.85 0.15 19.78 0.59 0.78 0.34 5.42 6.01 11.47 14.01 23.58 31.15 31.10 40.97 32.57 42.87 2.25 2.78 4.15 3.56 8.89 3.56 l3.96 0 0 -35.99 c0 -20.36 0.24 -37.65 0.49 -39.70 1.56 -12.01 6.49 -22.02 15.14 -30.81 7.08 -7.13 14.99 -11.67 24.66 -14.11 l5.37 -1.37 31.98 -0.34 c33.59 -0.34 36.08 -0.24 43.80 1.76 19.63 5.13 34.86 21.09 39.50 41.31 1.17 5.18 1.42 17.04 0.49 22.71 -1.51 9.08 -4.98 17.82 -9.96 24.76 -3.37 4.74 -9.18 10.64 -12.84 13.09 -1.81 1.17 -3.52 2.44 -3.86 2.83 -0.34 0.39 -0.93 0.73 -1.32 0.73 -0.93 0 -4.25 1.71 -4.98 2.64 -0.34 0.44 -1.42 0.88 -2.44 1.07 -2.73 0.44 -7.08 1.71 -7.71 2.25 -0.29 0.24 -2.25 0.59 -4.25 0.73 -2.05 0.15 -3.91 0.54 -4.15 0.83 -0.29 0.34 2.34 4.49 7.81 12.21 4.54 6.45 8.40 12.21 8.59 12.89 0.54 2.15 -0.78 3.61 -5.13 5.81 -2.25 1.17 -5.66 2.73 -7.57 3.52 -1.95 0.78 -4.49 2 -5.71 2.69 -1.22 0.68 -2.49 1.27 -2.88 1.27 -0.39 0 -2.10 0.59 -3.81 1.27 -2.69 1.07 -3.37 1.17 -4.79 0.68 -2.05 -0.68 -2.78 -1.56 -11.47 -14.40 -17.29 -25.39 -20.95 -30.96 -21.44 -32.76 -0.68 -2.44 -0.68 -19.38 -0.05 -21.78 0.29 -0.98 1.17 -2.49 2 -3.32 l1.51 -1.46 17.87 0 c9.86 0 19.24 -0.24 20.85 -0.49 11.62 -1.90 19.82 -12.74 19.19 -25.39 -0.34 -7.18 -3.71 -12.55 -9.57 -15.28 -2.29 -1.07 -2.59 -1.07 -31.10 -1.22 -30.42 -0.15 -35.45 0.10 -37.70 1.86 -0.68 0.54 -1.56 0.98 -1.90 0.98 -1.17 0 -4.15 3.03 -5.47 5.57 l-1.32 2.49 -0.29 64.21 c-0.24 58.15 -0.34 64.55 -1.07 67.63 -3.03 12.40 -7.91 20.26 -16.65 26.81 -3.13 2.29 -5.08 3.37 -9.81 5.42 -4.25 1.81 -8.74 2.20 -25.54 2.20 -15.43 0 -16.55 -0.05 -18.02 -0.98z"/>
 </g>
<g fill="#f06023">
  <path d="M247.85 399.61 c-0.68 -0.68 -0.78 -7.86 -0.78 -71.88 0 -68.31 0.05 -71.24 0.93 -73.14 0.49 -1.12 1.66 -2.54 2.54 -3.17 1.90 -1.37 1.66 -1.32 22.07 -1.56 l14.01 -0.15 0 1.42 c0 1.61 1.12 2.73 2.83 2.78 0.59 0 1.07 0.20 1.07 0.44 0 0.63 11.87 1.07 31.05 1.07 12.21 0 18.60 0.20 20.65 0.63 2.69 0.54 3.08 0.54 3.96 -0.29 0.63 -0.59 1.66 -0.88 3.27 -0.88 l2.29 0 -2.10 2.15 -2.15 2.15 1.76 5.08 c4.39 12.89 5.42 19.04 5.08 30.08 -0.20 6.84 -0.44 8.89 -1.51 12.70 -1.51 5.52 -3.91 10.74 -6.84 15.14 -2.98 4.54 -11.38 12.55 -16.16 15.48 -2.15 1.32 -4.25 2.64 -4.64 2.93 -0.39 0.29 -1.51 0.88 -2.44 1.22 -0.93 0.34 -2.34 0.93 -3.17 1.27 -0.78 0.34 -3.66 1.12 -6.35 1.71 -4.20 0.93 -6.69 1.12 -18.07 1.32 -8.01 0.10 -13.43 0.39 -13.77 0.68 -0.49 0.39 -0.63 3.81 -0.63 14.06 0 8.45 -0.20 14.11 -0.54 15.04 -0.54 1.56 -6.30 6.69 -15.38 13.57 -15.92 12.16 -15.33 11.82 -16.99 10.16z m57.91 -88.13 c6.98 -1.51 12.11 -6.40 13.87 -13.23 1.86 -7.13 -0.59 -14.16 -5.96 -17.29 l-2.20 -1.27 -7.67 1.51 c-4.20 0.88 -11.08 1.81 -15.23 2.15 l-7.57 0.59 -0.15 13.62 c-0.10 10.60 0.05 13.72 0.49 14.06 0.98 0.59 21.48 0.49 24.41 -0.15z"/>
 </g>
<g fill="#f27d1d">
  <path d="M342.82 260.25 c-0.49 -0.29 -0.39 -0.44 0.34 -0.73 0.88 -0.24 0.93 -0.44 0.44 -0.98 -0.29 -0.34 -0.78 -0.49 -1.03 -0.24 -0.54 0.54 -1.86 0.05 -1.46 -0.54 0.15 -0.24 -0.34 -0.44 -1.12 -0.49 -10.35 -0.24 -16.31 -0.15 -16.46 0.29 -0.15 0.34 -0.24 0.29 -0.24 0 -0.05 -0.73 -6.05 -0.34 -6.49 0.39 -0.24 0.39 -0.39 0.34 -0.39 -0.15 0 -0.63 -1.22 -0.73 -7.57 -0.78 -10.69 -0.10 -19.48 -0.63 -19.68 -1.17 -0.10 -0.29 -0.39 -0.49 -0.63 -0.49 -0.29 0 -0.34 0.24 -0.20 0.49 0.59 0.98 -0.83 0.49 -1.81 -0.59 -0.73 -0.83 -0.88 -0.93 -0.68 -0.29 0.29 1.03 -1.07 0.98 -2.34 -0.05 -1.07 -0.93 -0.98 -1.66 0.20 -1.27 0.73 0.24 0.88 0.15 0.68 -0.44 -0.15 -0.44 -0.54 -0.78 -0.88 -0.83 -0.29 0 -0.10 -0.20 0.44 -0.39 0.54 -0.20 0.98 -0.78 0.98 -1.27 0 -0.73 0.93 -1.07 5.27 -2 6.45 -1.37 8.98 -2.15 14.99 -4.74 15.19 -6.54 26.71 -17.43 41.65 -39.50 3.56 -5.27 7.18 -11.47 7.18 -12.35 0 -0.15 -2.73 -0.24 -6.10 -0.24 -5.86 0 -6.20 -0.05 -7.32 -1.22 -0.68 -0.63 -1.22 -1.61 -1.22 -2.10 0 -0.49 3.47 -5.08 7.71 -10.16 4.25 -5.08 13.18 -15.92 19.87 -24.12 11.38 -13.96 16.02 -19.63 21.14 -25.73 1.90 -2.34 2.34 -2.59 4.05 -2.59 1.42 0 2.29 0.34 3.13 1.22 l1.22 1.17 0 40.09 0 40.04 -1.61 1.76 c-1.56 1.71 -1.61 1.76 -6.59 2 -5.03 0.29 -5.03 0.29 -5.81 1.81 -1.46 2.88 -15.92 23.97 -19.73 28.86 -5.32 6.74 -11.82 13.43 -13.09 13.43 -0.54 0 -1.51 0.44 -2.10 0.98 -0.63 0.49 -1.27 0.88 -1.42 0.83 -0.15 -0.05 -0.83 0.49 -1.46 1.22 -0.83 0.83 -1.46 1.17 -1.86 0.88z"/>
 </g>
<g fill="#3f4d5e">
  <path d="M211.91 383.74 c-12.50 -8.50 -17.92 -13.92 -21.88 -21.88 -3.52 -7.03 -3.76 -8.89 -3.76 -30.66 0 -18.41 0.05 -19.19 0.98 -20.46 0.78 -1.03 2.39 -1.76 7.47 -3.42 7.28 -2.34 14.50 -5.96 19.19 -9.47 1.95 -1.51 3.61 -2.39 4.49 -2.44 l1.32 0 -0.10 46.24 c-0.10 31.20 -0.29 46.24 -0.63 46.39 -0.29 0.10 -3.47 -1.86 -7.08 -4.30z"/>
 </g>
</svg>