<?xml version="1.0" encoding="utf-8"?>
<!DOCTYPE svg PUBLIC "-//W3C//DTD SVG 1.0//EN" "http://www.w3.org/TR/2001/REC-SVG-20010904/DTD/svg10.dtd">
<svg version="1.0" xmlns="http://www.w3.org/2000/svg" width="500px" height="500px" viewBox="0 0 500 500" preserveAspectRatio="xMidYMid meet">
 <g fill="#fffefe">
  <path d="M0 250 l0 -250 250 0 250 0 0 250 0 250 -250 0 -250 0 0 -250z m255.08 144.34 c2.15 -1.66 5.91 -4.49 8.30 -6.35 9.08 -6.88 14.84 -12.01 15.38 -13.57 0.34 -0.93 0.54 -6.59 0.54 -15.04 0 -10.25 0.15 -13.67 0.63 -14.06 0.34 -0.29 5.76 -0.59 13.77 -0.68 11.38 -0.20 13.87 -0.39 18.07 -1.32 2.69 -0.59 5.57 -1.37 6.35 -1.71 0.83 -0.34 2.25 -0.93 3.17 -1.27 0.93 -0.34 2.05 -0.93 2.44 -1.22 0.39 -0.29 2.49 -1.61 4.64 -2.93 4.79 -2.93 13.18 -10.94 16.16 -15.48 8.84 -13.23 10.79 -29.25 5.76 -47.02 -0.68 -2.39 -1.90 -6.20 -2.69 -8.45 -2.29 -6.64 -2.34 -6.64 4.20 -13.18 3.08 -3.08 7.32 -7.81 9.42 -10.55 3.91 -4.98 18.36 -26.12 19.78 -28.91 0.78 -1.51 0.78 -1.51 5.81 -1.81 4.98 -0.24 5.03 -0.29 6.59 -2 l1.61 -1.76 0 -38.57 0 -38.62 -1.22 -1.17 c-1.86 -1.90 -0.98 -2.64 -9.81 8.06 -1.90 2.29 -8.89 10.84 -15.58 19.04 -6.69 8.20 -15.58 18.95 -19.68 23.88 l-7.57 9.03 1.12 0.88 c0.93 0.73 2 0.88 7.13 0.88 l6.05 0 0 1.71 c0 2.29 -2.10 6.35 -7.18 13.82 -18.65 27.54 -33.15 39.01 -55.81 44.09 -4.05 0.93 -6.69 1.12 -21.73 1.37 -17.04 0.29 -17.09 0.29 -18.75 1.46 -0.88 0.63 -2.05 2.05 -2.54 3.17 -0.88 1.90 -0.93 4.79 -0.93 71.44 0 38.18 0.15 69.73 0.29 70.17 0.39 0.98 1.22 0.54 6.25 -3.32z m-36.82 -53.08 l0 -43.99 -1.07 0.78 c-7.03 5.13 -12.79 8.06 -21.14 10.79 -4.98 1.61 -6.54 2.34 -7.32 3.37 -0.93 1.27 -0.98 2.05 -0.98 18.99 0 15.38 0.10 18.16 0.88 21.48 1.86 7.81 7.18 16.02 14.26 21.88 3.76 3.08 14.31 10.60 15.04 10.64 0.20 0.05 0.34 -19.78 0.34 -43.95z m-28.96 -49.56 c3.47 -0.73 4.88 -1.22 9.91 -3.52 2.49 -1.12 8.25 -5.57 10.79 -8.25 5.37 -5.76 8.69 -12.40 11.04 -21.88 0.73 -3.08 0.83 -9.47 1.07 -67.63 l0.29 -64.21 1.32 -2.49 c1.32 -2.54 4.30 -5.57 5.47 -5.57 0.34 0 1.22 -0.44 1.90 -0.98 2.25 -1.76 7.23 -2 39.16 -1.86 30.03 0.15 30.27 0.15 32.57 1.22 3.47 1.61 6.40 4.59 8.01 8.11 1.22 2.64 1.42 3.71 1.56 8.69 0.24 6.40 -0.49 10.06 -2.83 14.84 -2.83 5.86 -9.72 10.89 -16.36 11.96 -1.61 0.24 -10.99 0.49 -20.85 0.49 l-17.87 0 -1.51 1.46 c-0.83 0.83 -1.71 2.34 -2 3.32 -0.63 2.39 -0.63 16.41 0.05 18.85 0.49 1.81 4.15 7.37 21.44 32.76 10.55 15.53 10.16 15.14 13.96 13.48 1.27 -0.59 2.64 -1.03 3.08 -1.03 0.44 0 1.76 -0.59 2.98 -1.27 1.22 -0.68 3.76 -1.90 5.62 -2.69 4.74 -1.90 10.55 -4.79 11.62 -5.66 0.44 -0.44 0.83 -1.07 0.83 -1.37 0 -0.34 -3.71 -5.86 -8.30 -12.26 -10.40 -14.65 -10.55 -15.43 -3.52 -15.97 2 -0.15 3.86 -0.49 4.15 -0.73 0.63 -0.54 5.03 -1.81 7.71 -2.25 1.03 -0.20 2.10 -0.63 2.44 -1.07 0.73 -0.93 4.05 -2.64 4.98 -2.64 0.39 0 0.98 -0.34 1.32 -0.73 0.34 -0.39 2.05 -1.66 3.86 -2.83 3.66 -2.44 9.47 -8.35 12.84 -13.09 8.94 -12.45 12.65 -29.83 9.47 -44.29 -4.39 -20.21 -19.78 -36.38 -39.50 -41.55 -7.67 -2 -10.30 -2.10 -42.33 -1.76 l-30.52 0.34 -5.37 1.37 c-9.67 2.44 -17.58 6.93 -24.66 14.11 -8.64 8.79 -13.57 18.80 -15.14 30.81 -0.24 2.05 -0.49 19.34 -0.49 39.70 l0 35.99 -5.42 0 c-6.35 0 -7.96 -0.54 -10.35 -3.56 -1.46 -1.90 -8.98 -11.72 -32.57 -42.87 -6.05 -8.01 -10.69 -13.67 -11.47 -14.01 -1.66 -0.78 -34.52 -0.83 -35.94 -0.10 -2 1.07 -3.13 -0.59 19.53 29.05 7.37 9.67 14.79 19.43 16.55 21.68 1.71 2.25 6.54 8.59 10.74 14.16 16.06 21.29 18.46 23.58 27.93 27.05 2.15 0.78 4.39 1.03 11.72 1.27 l9.03 0.29 0 9.52 c0 9.47 0 9.52 -1.32 11.82 -1.03 1.66 -2 2.59 -3.91 3.52 -2.54 1.27 -2.54 1.27 -15.09 1.27 l-12.55 0 -1.46 1.37 c-1.32 1.27 -1.51 1.76 -1.81 5.66 -0.54 6.15 -0.10 20.31 0.68 21.68 0.34 0.63 1.32 1.56 2.15 2.05 1.46 0.93 2.59 0.98 16.55 0.98 11.91 0 15.77 -0.15 18.80 -0.78z"/>
  <path d="M279.88 313.09 c-0.44 -0.34 -0.59 -3.76 -0.49 -15.53 l0.15 -15.09 7.81 -0.63 c4.30 -0.34 11.04 -1.27 14.94 -2.05 9.03 -1.86 10.35 -1.86 13.28 0 4.20 2.64 6.20 7.23 6.20 14.06 0 9.91 -5.52 17.19 -14.55 19.09 -2.98 0.63 -26.37 0.73 -27.34 0.15z"/>
 </g>
 <g fill="#046aad">
  <path d="M152.49 292.97 c-0.83 -0.49 -1.81 -1.42 -2.15 -2.05 -0.78 -1.37 -1.22 -18.26 -0.68 -24.66 0.29 -3.86 0.49 -4.35 1.81 -5.62 l1.46 -1.37 12.55 0 c12.55 0 12.55 0 15.09 -1.27 1.90 -0.93 2.88 -1.86 3.91 -3.52 1.27 -2.25 1.32 -2.44 1.32 -10.35 l0 -8.06 -9.03 -0.29 c-7.32 -0.24 -9.57 -0.49 -11.72 -1.27 -9.47 -3.47 -11.87 -5.76 -27.93 -27.05 -4.20 -5.57 -9.03 -11.91 -10.74 -14.16 -10.99 -14.31 -29.35 -38.43 -33.11 -43.41 -4.74 -6.35 -5.27 -7.91 -3.42 -9.77 0.93 -0.93 1.61 -0.98 19.53 -0.98 13.33 0 18.85 0.15 19.78 0.59 0.78 0.34 5.42 6.01 11.47 14.01 23.58 31.15 31.10 40.97 32.57 42.87 2.25 2.78 4.15 3.56 8.89 3.56 l3.96 0 0 -35.99 c0 -20.36 0.24 -37.65 0.49 -39.70 1.56 -12.01 6.49 -22.02 15.14 -30.81 7.08 -7.13 14.99 -11.67 24.66 -14.11 l5.37 -1.37 31.98 -0.34 c33.59 -0.34 36.08 -0.24 43.80 1.76 19.63 5.13 34.86 21.09 39.50 41.31 1.17 5.18 1.42 17.04 0.49 22.71 -1.51 9.08 -4.98 17.82 -9.96 24.76 -3.37 4.74 -9.18 10.64 -12.84 13.09 -1.81 1.17 -3.52 2.44 -3.86 2.83 -0.34 0.39 -0.93 0.73 -1.32 0.73 -0.93 0 -4.25 1.71 -4.98 2.64 -0.34 0.44 -1.42 0.88 -2.44 1.07 -2.73 0.44 -7.08 1.71 -7.71 2.25 -0.29 0.24 -2.25 0.59 -4.25 0.73 -2.05 0.15 -3.91 0.54 -4.15 0.83 -0.29 0.34 2.34 4.49 7.81 12.21 4.54 6.45 8.40 12.21 8.59 12.89 0.54 2.15 -0.78 3.61 -5.13 5.81 -2.25 1.17 -5.66 2.73 -7.57 3.52 -1.95 0.78 -4.49 2 -5.71 2.69 -1.22 0.68 -2.49 1.27 -2.88 1.27 -0.39 0 -2.10 0.59 -3.81 1.27 -2.69 1.07 -3.37 1.17 -4.79 0.68 -2.05 -0.68 -2.78 -1.56 -11.47 -14.40 -17.29 -25.39 -20.95 -30.96 -21.44 -32.76 -0.68 -2.44 -0.68 -19.38 -0.05 -21.78 0.29 -0.98 1.17 -2.49 2 -3.32 l1.51 -1.46 17.87 0 c9.86 0 19.24 -0.24 20.85 -0.49 11.62 -1.90 19.82 -12.74 19.19 -25.39 -0.34 -7.18 -3.71 -12.55 -9.57 -15.28 -2.29 -1.07 -2.59 -1.07 -31.10 -1.22 -30.42 -0.15 -35.45 0.10 -37.70 1.86 -0.68 0.54 -1.56 0.98 -1.90 0.98 -1.17 0 -4.15 3.03 -5.47 5.57 l-1.32 2.49 -0.29 64.21 c-0.24 58.15 -0.34 64.55 -1.07 67.63 -3.03 12.40 -7.91 20.26 -16.65 26.81 -3.13 2.29 -5.08 3.37 -9.81 5.42 -4.25 1.81 -8.74 2.20 -25.54 2.20 -15.43 0 -16.55 -0.05 -18.02 -0.98z"/>
 </g>
 <g fill="#f06023">
  <path d="M247.85 399.61 c-0.68 -0.68 -0.78 -7.86 -0.78 -71.88 0 -68.31 0.05 -71.24 0.93 -73.14 0.49 -1.12 1.66 -2.54 2.54 -3.17 1.90 -1.37 1.66 -1.32 22.07 -1.56 l14.01 -0.15 0 1.42 c0 1.61 1.12 2.73 2.83 2.78 0.59 0 1.07 0.20 1.07 0.44 0 0.63 11.87 1.07 31.05 1.07 12.21 0 18.60 0.20 20.65 0.63 2.69 0.54 3.08 0.54 3.96 -0.29 0.63 -0.59 1.66 -0.88 3.27 -0.88 l2.29 0 -2.10 2.15 -2.15 2.15 1.76 5.08 c4.39 12.89 5.42 19.04 5.08 30.08 -0.20 6.84 -0.44 8.89 -1.51 12.70 -1.51 5.52 -3.91 10.74 -6.84 15.14 -2.98 4.54 -11.38 12.55 -16.16 15.48 -2.15 1.32 -4.25 2.64 -4.64 2.93 -0.39 0.29 -1.51 0.88 -2.44 1.22 -0.93 0.34 -2.34 0.93 -3.17 1.27 -0.78 0.34 -3.66 1.12 -6.35 1.71 -4.20 0.93 -6.69 1.12 -18.07 1.32 -8.01 0.10 -13.43 0.39 -13.77 0.68 -0.49 0.39 -0.63 3.81 -0.63 14.06 0 8.45 -0.20 14.11 -0.54 15.04 -0.54 1.56 -6.30 6.69 -15.38 13.57 -15.92 12.16 -15.33 11.82 -16.99 10.16z m57.91 -88.13 c6.98 -1.51 12.11 -6.40 13.87 -13.23 1.86 -7.13 -0.59 -14.16 -5.96 -17.29 l-2.20 -1.27 -7.67 1.51 c-4.20 0.88 -11.08 1.81 -15.23 2.15 l-7.57 0.59 -0.15 13.62 c-0.10 10.60 0.05 13.72 0.49 14.06 0.98 0.59 21.48 0.49 24.41 -0.15z"/>
 </g>
 <g fill="#f27d1d">
  <path d="M342.82 260.25 c-0.49 -0.29 -0.39 -0.44 0.34 -0.73 0.88 -0.24 0.93 -0.44 0.44 -0.98 -0.29 -0.34 -0.78 -0.49 -1.03 -0.24 -0.54 0.54 -1.86 0.05 -1.46 -0.54 0.15 -0.24 -0.34 -0.44 -1.12 -0.49 -10.35 -0.24 -16.31 -0.15 -16.46 0.29 -0.15 0.34 -0.24 0.29 -0.24 0 -0.05 -0.73 -6.05 -0.34 -6.49 0.39 -0.24 0.39 -0.39 0.34 -0.39 -0.15 0 -0.63 -1.22 -0.73 -7.57 -0.78 -10.69 -0.10 -19.48 -0.63 -19.68 -1.17 -0.10 -0.29 -0.39 -0.49 -0.63 -0.49 -0.29 0 -0.34 0.24 -0.20 0.49 0.59 0.98 -0.83 0.49 -1.81 -0.59 -0.73 -0.83 -0.88 -0.93 -0.68 -0.29 0.29 1.03 -1.07 0.98 -2.34 -0.05 -1.07 -0.93 -0.98 -1.66 0.20 -1.27 0.73 0.24 0.88 0.15 0.68 -0.44 -0.15 -0.44 -0.54 -0.78 -0.88 -0.83 -0.29 0 -0.10 -0.20 0.44 -0.39 0.54 -0.20 0.98 -0.78 0.98 -1.27 0 -0.73 0.93 -1.07 5.27 -2 6.45 -1.37 8.98 -2.15 14.99 -4.74 15.19 -6.54 26.71 -17.43 41.65 -39.50 3.56 -5.27 7.18 -11.47 7.18 -12.35 0 -0.15 -2.73 -0.24 -6.10 -0.24 -5.86 0 -6.20 -0.05 -7.32 -1.22 -0.68 -0.63 -1.22 -1.61 -1.22 -2.10 0 -0.49 3.47 -5.08 7.71 -10.16 4.25 -5.08 13.18 -15.92 19.87 -24.12 11.38 -13.96 16.02 -19.63 21.14 -25.73 1.90 -2.34 2.34 -2.59 4.05 -2.59 1.42 0 2.29 0.34 3.13 1.22 l1.22 1.17 0 40.09 0 40.04 -1.61 1.76 c-1.56 1.71 -1.61 1.76 -6.59 2 -5.03 0.29 -5.03 0.29 -5.81 1.81 -1.46 2.88 -15.92 23.97 -19.73 28.86 -5.32 6.74 -11.82 13.43 -13.09 13.43 -0.54 0 -1.51 0.44 -2.10 0.98 -0.63 0.49 -1.27 0.88 -1.42 0.83 -0.15 -0.05 -0.83 0.49 -1.46 1.22 -0.83 0.83 -1.46 1.17 -1.86 0.88z"/>
 </g>
 <g fill="#3f4d5e">
  <path d="M211.91 383.74 c-12.50 -8.50 -17.92 -13.92 -21.88 -21.88 -3.52 -7.03 -3.76 -8.89 -3.76 -30.66 0 -18.41 0.05 -19.19 0.98 -20.46 0.78 -1.03 2.39 -1.76 7.47 -3.42 7.28 -2.34 14.50 -5.96 19.19 -9.47 1.95 -1.51 3.61 -2.39 4.49 -2.44 l1.32 0 -0.10 46.24 c-0.10 31.20 -0.29 46.24 -0.63 46.39 -0.29 0.10 -3.47 -1.86 -7.08 -4.30z"/>
 </g>
</svg>